<?xml version="1.0" encoding="UTF-8"?>
<!DOCTYPE svg PUBLIC "-//W3C//DTD SVG 1.1//EN"
    "http://www.w3.org/Graphics/SVG/1.1/DTD/svg11.dtd" >
<svg contentScriptType="text/ecmascript" width="436.0"
     xmlns:xlink="http://www.w3.org/1999/xlink" zoomAndPan="magnify"
     contentStyleType="text/css"
     viewBox="-106.000000 -333.756470 436.000000 606.420715" height="606.4207"
     preserveAspectRatio="xMidYMid meet" xmlns="http://www.w3.org/2000/svg"
     version="1.1">
    <g id="edges">
        <path fill="none" stroke-width="4.285714"
              d="M 198.403091,212.142563 C 130.180847,223.278870 11.143049,137.649933 0.006757,69.427681"
              class="id_0 id_2" stroke-opacity="1.0" stroke="#af914a"/>
        <path fill="none" stroke-width="6.642857"
              d="M 198.403091,212.142563 C 134.813538,159.557114 118.307365,-14.705371 170.892807,-78.294930"
              class="id_0 id_3" stroke-opacity="1.0" stroke="#967679"/>
        <path fill="none" stroke-width="3.2142859"
              d="M 198.403091,212.142563 C 189.771301,154.705261 262.979553,55.601624 320.416840,46.969822"
              class="id_0 id_4" stroke-opacity="1.0" stroke="#e271b5"/>
        <path fill="none" stroke-width="3.642857"
              d="M 198.403091,212.142563 C 178.592499,248.237610 94.734039,272.664246 58.639000,252.853668"
              class="id_0 id_6" stroke-opacity="1.0" stroke="#af914a"/>
        <path fill="none" stroke-width="1.9285715"
              d="M 198.403091,212.142563 C 111.725372,243.138519 -64.785110,159.615906 -95.781067,72.938187"
              class="id_0 id_7" stroke-opacity="1.0" stroke="#e271b5"/>
        <path fill="none" stroke-width="1.5"
              d="M 198.403091,212.142563 C 103.136795,210.881729 -37.871426,66.091011 -36.610588,-29.175287"
              class="id_0 id_8" stroke-opacity="1.0" stroke="#e271b5"/>
        <path fill="none" stroke-width="1.5"
              d="M 198.403091,212.142563 C 103.110130,174.259338 16.995537,-25.504890 54.878746,-120.797844"
              class="id_0 id_9" stroke-opacity="1.0" stroke="#f4714b"/>
        <path fill="none" stroke-width="15.0"
              d="M 0.006757,69.427681 C 4.639441,5.705948 107.171082,-82.927612 170.892807,-78.294930"
              class="id_2 id_3" stroke-opacity="1.0" stroke="#46ab42"/>
        <path fill="none" stroke-width="3.0"
              d="M 0.006757,69.427681 C 59.597210,0.854088 251.843231,-12.620628 320.416840,46.969822"
              class="id_2 id_4" stroke-opacity="1.0" stroke="#92a67e"/>
        <path fill="none" stroke-width="1.5"
              d="M 0.006757,69.427681 C 32.742420,16.855759 160.703796,-12.898630 213.275711,19.837034"
              class="id_2 id_5" stroke-opacity="1.0" stroke="#92a67e"/>
        <path fill="none" stroke-width="4.714286"
              d="M 0.006757,69.427681 C 48.418404,94.386436 83.597748,204.442017 58.639000,252.853668"
              class="id_2 id_6" stroke-opacity="1.0" stroke="#5fc613"/>
        <path fill="none" stroke-width="2.142857"
              d="M 0.006757,69.427681 C -18.448708,89.287346 -75.921402,91.393646 -95.781067,72.938187"
              class="id_2 id_7" stroke-opacity="1.0" stroke="#92a67e"/>
        <path fill="none" stroke-width="2.142857"
              d="M 0.006757,69.427681 C -27.063953,20.408173 5.859238,-93.727127 54.878746,-120.797844"
              class="id_2 id_9" stroke-opacity="1.0" stroke="#a4a614"/>
        <path fill="none" stroke-width="4.285714"
              d="M 170.892807,-78.294930 C 225.850555,-83.146790 315.564972,-7.987938 320.416840,46.969822"
              class="id_3 id_4" stroke-opacity="1.0" stroke="#7a8bad"/>
        <path fill="none" stroke-width="2.5714285"
              d="M 170.892807,-78.294930 C 198.995773,-67.145111 224.425522,-8.265942 213.275711,19.837034"
              class="id_3 id_5" stroke-opacity="1.0" stroke="#7a8bad"/>
        <path fill="none" stroke-width="8.785714"
              d="M 170.892807,-78.294930 C 214.671753,10.385546 147.319473,209.074722 58.639000,252.853668"
              class="id_3 id_6" stroke-opacity="1.0" stroke="#46ab42"/>
        <path fill="none" stroke-width="2.5714285"
              d="M 170.892807,-78.294930 C 147.804657,5.286476 -12.199663,96.026337 -95.781067,72.938187"
              class="id_3 id_7" stroke-opacity="1.0" stroke="#7a8bad"/>
        <path fill="none" stroke-width="2.357143"
              d="M 170.892807,-78.294930 C 139.189423,-63.592697 69.580978,-89.094452 54.878746,-120.797844"
              class="id_3 id_9" stroke-opacity="1.0" stroke="#8c8b43"/>
        <path fill="none" stroke-width="1.9285715"
              d="M 170.892807,-78.294930 C 129.865982,-90.111298 86.050285,-169.376114 97.866653,-210.402939"
              class="id_3 id_10" stroke-opacity="1.0" stroke="#17adb8"/>
        <path fill="none" stroke-width="1.9285715"
              d="M 320.416840,46.969822 C 309.238037,140.502167 152.171341,264.032471 58.639000,252.853668"
              class="id_4 id_6" stroke-opacity="1.0" stroke="#92a67e"/>
        <path fill="none" stroke-width="1.5"
              d="M 213.275711,19.837034 C 228.951706,97.367706 136.169678,237.177673 58.639000,252.853668"
              class="id_5 id_6" stroke-opacity="1.0" stroke="#92a67e"/>
        <path fill="none" stroke-width="1.9285715"
              d="M 58.639000,252.853668 C -8.228111,247.754593 -100.880142,139.805298 -95.781067,72.938187"
              class="id_6 id_7" stroke-opacity="1.0" stroke="#92a67e"/>
        <path fill="none" stroke-width="1.5"
              d="M 58.639000,252.853668 C -16.843361,178.875397 -19.099510,-45.315483 54.878746,-120.797844"
              class="id_6 id_9" stroke-opacity="1.0" stroke="#a4a614"/>
        <path fill="none" stroke-width="1.5"
              d="M -36.610588,-29.175287 C -36.637234,-65.797668 18.256367,-120.771194 54.878746,-120.797844"
              class="id_8 id_9" stroke-opacity="1.0" stroke="#d8867f"/>
        <path fill="none" stroke-width="1.7142857"
              d="M 54.878746,-120.797844 C 45.555305,-147.316452 71.348053,-201.079498 97.866653,-210.402939"
              class="id_9 id_10" stroke-opacity="1.0" stroke="#75a88a"/>
        <path fill="none" stroke-width="1.7142857"
              d="M 97.866653,-210.402939 C 65.254837,-195.679108 -5.748630,-222.511093 -20.472460,-255.122894"
              class="id_10 id_11" stroke-opacity="1.0" stroke="#00657f"/>
        <path fill="none" stroke-width="2.357143"
              d="M 97.866653,-210.402939 C 68.952866,-223.716110 45.551926,-287.056519 58.865082,-315.970306"
              class="id_10 id_12" stroke-opacity="1.0" stroke="#63a8f4"/>
        <path fill="none" stroke-width="4.928571"
              d="M 97.866653,-210.402939 C 86.807762,-241.502274 116.868431,-304.739624 147.967758,-315.798492"
              class="id_10 id_13" stroke-opacity="1.0" stroke="#2fc889"/>
        <path fill="none" stroke-width="1.9285715"
              d="M 97.866653,-210.402939 C 108.803833,-237.894699 166.447250,-262.726563 193.939011,-251.789368"
              class="id_10 id_14" stroke-opacity="1.0" stroke="#63a8f4"/>
        <path fill="none" stroke-width="1.5"
              d="M 58.865082,-315.970306 C 76.719978,-333.756470 130.181580,-333.653381 147.967758,-315.798492"
              class="id_12 id_13" stroke-opacity="1.0" stroke="#92a67e"/>
        <path fill="none" stroke-width="1.9285715"
              d="M 147.967758,-315.798492 C 169.963821,-312.190918 197.546585,-273.785431 193.939011,-251.789368"
              class="id_13 id_14" stroke-opacity="1.0" stroke="#92a67e"/>
    </g>
    <g id="nodes">
        <circle fill="#ff5c81" fill-opacity="0.5" r="11.202532" class="id_0"
                cx="198.40309" cy="212.14256"/>
        <circle fill="#5fc613" fill-opacity="0.5" r="10.6118145" class="id_2"
                cx="0.0067565357" cy="69.42768"/>
        <circle fill="#2e9072" fill-opacity="0.5" r="16.308018" class="id_3"
                cx="170.8928" cy="-78.29493"/>
        <circle fill="#c686e9" fill-opacity="0.5" r="10.0" class="id_4"
                cx="320.41684" cy="46.969822"/>
        <circle fill="#c686e9" fill-opacity="0.5" r="10.0" class="id_5"
                cx="213.27571" cy="19.837034"/>
        <circle fill="#5fc613" fill-opacity="0.5" r="10.6118145" class="id_6"
                cx="58.639" cy="252.85367"/>
        <circle fill="#c686e9" fill-opacity="0.5" r="10.0" class="id_7"
                cx="-95.78107" cy="72.93819"/>
        <circle fill="#c686e9" fill-opacity="0.5" r="10.0" class="id_8"
                cx="-36.610588" cy="-29.175287"/>
        <circle fill="#ea8615" fill-opacity="0.5" r="13.670886" class="id_9"
                cx="54.878746" cy="-120.797844"/>
        <circle fill="#00caff" fill-opacity="0.5" r="20.0" class="id_10"
                cx="97.86665" cy="-210.40294"/>
        <circle fill="#000000" fill-opacity="0.5" r="10.0" class="id_11"
                cx="-20.47246" cy="-255.1229"/>
        <circle fill="#c686e9" fill-opacity="0.5" r="10.0" class="id_12"
                cx="58.86508" cy="-315.9703"/>
        <circle fill="#5fc613" fill-opacity="0.5" r="10.126582" class="id_13"
                cx="147.96776" cy="-315.7985"/>
        <circle fill="#c686e9" fill-opacity="0.5" r="10.0" class="id_14"
                cx="193.93901" cy="-251.78937"/>
    </g>
    <g id="node-labels">
        <text font-size="22" x="198.40309" y="217.64256" fill="#3d5475"
              style="text-anchor: middle; dominant-baseline: central;"
              font-family="Sathu" class="id_0">
            Franky
        </text>
        <text font-size="21" x="0.0067565357" y="73.48263" fill="#3d5475"
              style="text-anchor: middle; dominant-baseline: central;"
              font-family="Sathu" class="id_2">
            Rosaria
        </text>
        <text font-size="33" x="170.8928" y="-71.922874" fill="#3d5475"
              style="text-anchor: middle; dominant-baseline: central;"
              font-family="Sathu" class="id_3">
            Irene
        </text>
        <text font-size="20" x="320.41684" y="50.831676" fill="#3d5475"
              style="text-anchor: middle; dominant-baseline: central;"
              font-family="Sathu" class="id_4">
            Dee
        </text>
        <text font-size="20" x="213.27571" y="23.851948" fill="#3d5475"
              style="text-anchor: middle; dominant-baseline: central;"
              font-family="Sathu" class="id_5">
            Véloce
        </text>
        <text font-size="21" x="58.639" y="257.11053" fill="#3d5475"
              style="text-anchor: middle; dominant-baseline: central;"
              font-family="Sathu" class="id_6">
            Candido
        </text>
        <text font-size="20" x="-95.78107" y="76.87853" fill="#3d5475"
              style="text-anchor: middle; dominant-baseline: central;"
              font-family="Sathu" class="id_7">
            Mil
        </text>
        <text font-size="20" x="-36.610588" y="-25.160374" fill="#3d5475"
              style="text-anchor: middle; dominant-baseline: central;"
              font-family="Sathu" class="id_8">
            Alex
        </text>
        <text font-size="27" x="54.878746" y="-115.32472" fill="#3d5475"
              style="text-anchor: middle; dominant-baseline: central;"
              font-family="Sathu" class="id_9">
            Camille
        </text>
        <text font-size="40" x="97.86665" y="-202.67923" fill="#3d5475"
              style="text-anchor: middle; dominant-baseline: central;"
              font-family="Sathu" class="id_10">
            Manco
        </text>
        <text font-size="20" x="-20.47246" y="-251.10797" fill="#3d5475"
              style="text-anchor: middle; dominant-baseline: central;"
              font-family="Sathu" class="id_11">
            Wenceslao
        </text>
        <text font-size="20" x="58.86508" y="-310.8918" fill="#3d5475"
              style="text-anchor: middle; dominant-baseline: central;"
              font-family="Sathu" class="id_12">
            Miguel
        </text>
        <text font-size="20" x="147.96776" y="-311.709" fill="#3d5475"
              style="text-anchor: middle; dominant-baseline: central;"
              font-family="Sathu" class="id_13">
            K’ak’a
        </text>
        <text font-size="20" x="193.93901" y="-247.77444" fill="#3d5475"
              style="text-anchor: middle; dominant-baseline: central;"
              font-family="Sathu" class="id_14">
            Guatavita
        </text>
    </g>
</svg>